<svg xmlns="http://www.w3.org/2000/svg" viewBox="0 0 700 380" font-family="Equinor, Helvetica, sans-serif">
  <rect x="20" y="20" width="660" height="340" rx="16" fill="#1a3a4a" stroke="rgba(255,255,255,0.1)" stroke-width="1"/>

  <text x="350" y="75" text-anchor="middle" fill="#fff" font-size="22" font-weight="700">"Look at me."</text>
  <text x="350" y="105" text-anchor="middle" fill="#97CACE" font-size="18" font-weight="600">"I'm the developer now."</text>

  <rect x="70" y="130" width="130" height="50" rx="8" fill="rgba(151,202,206,0.1)"/>
  <text x="135" y="155" text-anchor="middle" fill="#97CACE" font-size="18">&#x1F4BB;</text>
  <text x="135" y="172" text-anchor="middle" fill="#97CACE" font-size="11" font-weight="600">Terminal</text>

  <rect x="215" y="130" width="130" height="50" rx="8" fill="rgba(151,202,206,0.1)"/>
  <text x="280" y="155" text-anchor="middle" fill="#97CACE" font-size="18">&#x1F4E6;</text>
  <text x="280" y="172" text-anchor="middle" fill="#97CACE" font-size="11" font-weight="600">Packages</text>

  <rect x="360" y="130" width="130" height="50" rx="8" fill="rgba(151,202,206,0.1)"/>
  <text x="425" y="155" text-anchor="middle" fill="#97CACE" font-size="18">&#x1F310;</text>
  <text x="425" y="172" text-anchor="middle" fill="#97CACE" font-size="11" font-weight="600">Network</text>

  <rect x="505" y="130" width="130" height="50" rx="8" fill="rgba(151,202,206,0.1)"/>
  <text x="570" y="155" text-anchor="middle" fill="#97CACE" font-size="18">&#x1F4C1;</text>
  <text x="570" y="172" text-anchor="middle" fill="#97CACE" font-size="11" font-weight="600">Filesystem</text>

  <rect x="70" y="210" width="270" height="80" rx="10" fill="rgba(64,211,143,0.08)" stroke="rgba(64,211,143,0.3)" stroke-width="1"/>
  <text x="205" y="248" text-anchor="middle" fill="#40d38f" font-size="32" font-weight="700">4x</text>
  <text x="205" y="275" text-anchor="middle" fill="rgba(255,255,255,0.7)" font-size="13">more commits</text>

  <rect x="365" y="210" width="270" height="80" rx="10" fill="rgba(235,0,55,0.08)" stroke="rgba(235,0,55,0.3)" stroke-width="1"/>
  <text x="500" y="248" text-anchor="middle" fill="#eb0037" font-size="32" font-weight="700">10x</text>
  <text x="500" y="275" text-anchor="middle" fill="rgba(255,255,255,0.7)" font-size="13">more security findings</text>

  <text x="350" y="330" text-anchor="middle" fill="rgba(255,255,255,0.4)" font-size="10">Apiiro, 2025 — Fortune 50 enterprises</text>
  <text x="350" y="348" text-anchor="middle" fill="rgba(255,255,255,0.3)" font-size="9">Privilege escalation paths +322% | Architectural flaws +153%</text>
</svg>
