<svg xmlns="http://www.w3.org/2000/svg" viewBox="0 0 700 240" font-family="Equinor, Helvetica, sans-serif">
  <!-- Window frame -->
  <rect x="20" y="10" width="660" height="190" rx="10" fill="#0d1117" stroke="rgba(255,255,255,0.1)" stroke-width="1"/>

  <!-- Title bar with dots -->
  <rect x="20" y="10" width="660" height="30" rx="10" fill="#161b22"/>
  <rect x="20" y="30" width="660" height="10" fill="#161b22"/>
  <line x1="20" y1="40" x2="680" y2="40" stroke="#30363d" stroke-width="1"/>
  <circle cx="42" cy="25" r="5" fill="#ef4444"/>
  <circle cx="60" cy="25" r="5" fill="#f59e0b"/>
  <circle cx="78" cy="25" r="5" fill="#22c55e"/>
  <text x="110" y="29" fill="rgba(255,255,255,0.4)" font-size="10" font-family="monospace">config.js</text>

  <!-- Code content -->
  <text x="40" y="65" fill="rgba(255,255,255,0.5)" font-size="13" font-family="monospace"><tspan fill="#a78bfa">const</tspan> config = {</text>
  <text x="60" y="90" fill="rgba(255,255,255,0.5)" font-size="13" font-family="monospace">port: <tspan fill="#f59e0b">3000</tspan>,</text>

  <!-- Highlighted secret lines -->
  <rect x="30" y="99" width="640" height="24" rx="3" fill="rgba(239,68,68,0.12)"/>
  <rect x="30" y="99" width="3" height="24" rx="1" fill="#ef4444"/>
  <text x="60" y="117" fill="#ef4444" font-size="13" font-family="monospace">apiKey: <tspan fill="#ef4444">"sk-live-4f8b2c..."</tspan></text>

  <rect x="30" y="127" width="640" height="24" rx="3" fill="rgba(239,68,68,0.12)"/>
  <rect x="30" y="127" width="3" height="24" rx="1" fill="#ef4444"/>
  <text x="60" y="145" fill="#ef4444" font-size="13" font-family="monospace">dbPass: <tspan fill="#ef4444">"prod_s3cur3!"</tspan></text>

  <text x="40" y="175" fill="rgba(255,255,255,0.5)" font-size="13" font-family="monospace">};</text>

  <text x="350" y="228" text-anchor="middle" fill="#d97706" font-size="14" font-weight="600">Your agent will do this. Every time.</text>
</svg>
