<svg xmlns="http://www.w3.org/2000/svg" viewBox="0 0 800 500" font-family="Equinor, Helvetica, sans-serif">
  <defs>
    <marker id="arrow" markerWidth="10" markerHeight="7" refX="10" refY="3.5" orient="auto">
      <polygon points="0 0, 10 3.5, 0 7" fill="#97CACE"/>
    </marker>
  </defs>

  <!-- Steps arranged in a hexagonal loop -->
  <!-- 1. Spec (top left) -->
  <rect x="80" y="60" width="160" height="70" rx="12" fill="#1a3a4a" stroke="#97CACE" stroke-width="2"/>
  <text x="160" y="92" text-anchor="middle" fill="#fff" font-size="15" font-weight="600">1. SPEC</text>
  <text x="160" y="114" text-anchor="middle" fill="#97CACE" font-size="11">what &amp; why</text>

  <!-- 2. Plan (top right) -->
  <rect x="320" y="60" width="160" height="70" rx="12" fill="#1a3a4a" stroke="#97CACE" stroke-width="2"/>
  <text x="400" y="92" text-anchor="middle" fill="#fff" font-size="15" font-weight="600">2. PLAN</text>
  <text x="400" y="114" text-anchor="middle" fill="#97CACE" font-size="11">agent designs approach</text>

  <!-- 3. Build (right) -->
  <rect x="560" y="60" width="160" height="70" rx="12" fill="#1a3a4a" stroke="#97CACE" stroke-width="2"/>
  <text x="640" y="92" text-anchor="middle" fill="#fff" font-size="15" font-weight="600">3. BUILD</text>
  <text x="640" y="114" text-anchor="middle" fill="#97CACE" font-size="11">small steps, commit often</text>

  <!-- 4. Verify (bottom right) -->
  <rect x="560" y="300" width="160" height="70" rx="12" fill="#1a3a4a" stroke="#97CACE" stroke-width="2"/>
  <text x="640" y="332" text-anchor="middle" fill="#fff" font-size="15" font-weight="600">4. VERIFY</text>
  <text x="640" y="354" text-anchor="middle" fill="#97CACE" font-size="11">does it actually work?</text>

  <!-- 5. Secure (bottom left) -->
  <rect x="320" y="300" width="160" height="70" rx="12" fill="#1a3a4a" stroke="#d97706" stroke-width="2"/>
  <text x="400" y="332" text-anchor="middle" fill="#fff" font-size="15" font-weight="600">5. SECURE</text>
  <text x="400" y="354" text-anchor="middle" fill="#d97706" font-size="11">do a security review</text>

  <!-- 6. Ship (left) -->
  <rect x="80" y="300" width="160" height="70" rx="12" fill="#1a3a4a" stroke="#40d38f" stroke-width="2"/>
  <text x="160" y="332" text-anchor="middle" fill="#fff" font-size="15" font-weight="600">6. SHIP</text>
  <text x="160" y="354" text-anchor="middle" fill="#40d38f" font-size="11">demo &amp; share</text>

  <!-- Arrows connecting the steps -->
  <!-- Spec → Plan -->
  <line x1="240" y1="95" x2="318" y2="95" stroke="#97CACE" stroke-width="2" marker-end="url(#arrow)"/>
  <!-- Plan → Build -->
  <line x1="480" y1="95" x2="558" y2="95" stroke="#97CACE" stroke-width="2" marker-end="url(#arrow)"/>
  <!-- Build → Verify -->
  <line x1="640" y1="130" x2="640" y2="298" stroke="#97CACE" stroke-width="2" marker-end="url(#arrow)"/>
  <!-- Verify → Secure -->
  <line x1="560" y1="335" x2="482" y2="335" stroke="#97CACE" stroke-width="2" marker-end="url(#arrow)"/>
  <!-- Secure → Ship -->
  <line x1="320" y1="335" x2="242" y2="335" stroke="#97CACE" stroke-width="2" marker-end="url(#arrow)"/>
  <!-- Ship → Spec (loop back) -->
  <path d="M 80 335 Q 30 335 30 215 Q 30 95 78 95" fill="none" stroke="#97CACE" stroke-width="2" stroke-dasharray="6,4" marker-end="url(#arrow)"/>

  <!-- Center label -->
  <text x="400" y="210" text-anchor="middle" fill="#fff" font-size="13" opacity="0.5">repeat for each feature</text>

  <!-- Loop arrow label -->
  <text x="18" y="220" text-anchor="middle" fill="#97CACE" font-size="10" transform="rotate(-90, 18, 220)">iterate</text>
</svg>
